<?xml version="1.0" encoding="utf-8"?>
<!-- Generator: Adobe Illustrator 16.0.0, SVG Export Plug-In . SVG Version: 6.00 Build 0)  -->
<!DOCTYPE svg PUBLIC "-//W3C//DTD SVG 1.1//EN" "http://www.w3.org/Graphics/SVG/1.1/DTD/svg11.dtd">
<svg version="1.1" id="Layer_1" xmlns="http://www.w3.org/2000/svg" xmlns:xlink="http://www.w3.org/1999/xlink" x="0px" y="0px"
	 width="150px" height="150px" viewBox="0 0 150 150" enable-background="new 0 0 150 150" xml:space="preserve">
<g>
	<circle fill="#00BBCC" cx="75.554" cy="75.528" r="75"/>
	<path fill="#179399" d="M46.078,110.813l47.282,37.59c0,0,23.024-4.081,39.956-25.034c17.237-21.33,17.237-44.219,17.237-44.219
		L111.57,49.004l-2.504,4.954l1.083,46.219l-4.673,8.773l-13.207-4.563c0,0-13.478-15.86-14.945-14.393
		c-6.686,6.685-18.945,17.387-18.945,17.387l-7.99,1.016L46.078,110.813"/>
	<g>
		<path fill="#FFFFFF" d="M56.504,71.232c0,0-0.064-0.32,0.043-0.421s0.511-0.072,0.511-0.072l8.725,0.863l-8.072,7.889
			L56.504,71.232z"/>
		<path fill="#FFFFFF" d="M85.367,48.231l4.997-4.793c0,0,4.429-4.266,10.888-4.185s9.418,4.022,10.193,6.094
			s1.466,5.728,1.507,9.709c0.04,3.981,1.219,35.425,1.219,35.425s0.935,6.906-1.097,12.675s-6.703,8.653-12.391,8.003
			c-5.688-0.649-11.538-5.606-15.316-9.669c-3.777-4.063-16.656-15.071-19.215-17.631s-5.85-5.362-5.85-5.362
			s-2.762-1.788-1.666-3.738c1.097-1.95,2.966-3.006,4.956-1.097c1.991,1.91,13.447,12.269,13.447,12.269l15.763,14.422
			c0,0,8.116,7.261,12.025,4.428c2.803-2.031,4.103-5.281,3.453-14.869c-0.65-9.587-0.69-18.972-0.69-18.972l-0.569-16.697
			c0,0,0.894-7.435-3.818-8.938c-4.713-1.503-7.638,1.625-8.206,1.95c-0.569,0.325-4.469,4.185-5.16,4.834
			c-0.69,0.65-2.396,2.803-4.469,1.219C83.296,51.725,83.273,50.239,85.367,48.231z"/>
	</g>
	<g>
		<path fill="#FFFFFF" d="M93.565,79.27c0,0,0.064,0.319-0.043,0.421c-0.108,0.102-0.512,0.072-0.512,0.072l-8.725-0.863
			l8.072-7.888L93.565,79.27z"/>
		<path fill="#FFFFFF" d="M64.702,102.271l-4.997,4.793c0,0-4.428,4.266-10.888,4.185c-6.459-0.081-9.418-4.021-10.193-6.094
			c-0.775-2.071-1.466-5.728-1.506-9.709S35.899,60.02,35.899,60.02s-0.935-6.906,1.097-12.675
			c2.031-5.769,6.703-8.653,12.391-8.003s11.538,5.606,15.316,9.669c3.778,4.063,16.656,15.072,19.216,17.631
			c2.56,2.559,5.85,5.362,5.85,5.362s2.763,1.788,1.666,3.738s-2.966,3.006-4.956,1.097C84.486,74.929,73.03,64.57,73.03,64.57
			L57.268,50.148c0,0-8.116-7.261-12.025-4.428c-2.803,2.031-4.103,5.281-3.453,14.869c0.65,9.587,0.69,18.972,0.69,18.972
			l0.569,16.697c0,0-0.894,7.435,3.819,8.938s7.638-1.625,8.206-1.95c0.569-0.325,4.469-4.185,5.16-4.834
			c0.69-0.65,2.397-2.804,4.469-1.219C66.774,98.776,66.796,100.262,64.702,102.271z"/>
	</g>
</g>
</svg>
