<?xml version="1.0" encoding="utf-8"?>
<!-- Generator: Adobe Illustrator 16.0.0, SVG Export Plug-In . SVG Version: 6.00 Build 0)  -->
<!DOCTYPE svg PUBLIC "-//W3C//DTD SVG 1.1//EN" "http://www.w3.org/Graphics/SVG/1.1/DTD/svg11.dtd">
<svg version="1.1" id="Layer_1" xmlns="http://www.w3.org/2000/svg" xmlns:xlink="http://www.w3.org/1999/xlink" x="0px" y="0px"
	 width="251.167px" height="100px" viewBox="0 0 251.167 100" enable-background="new 0 0 251.167 100" xml:space="preserve">
<g>
	<g>
		<g>
			<path fill="#00BBCC" d="M155.861,24.497V72.25c0,1.643-0.496,3.049-1.492,4.217c-0.994,1.168-2.162,1.752-3.506,1.752
				c-3.432,0-6.244-1.988-8.432-5.969l-18.355-28.726v34.099h-10.371V24.497h9.998l21.787,34.771V24.497H155.861z"/>
			<path fill="#00BBCC" d="M193.466,57.029h9.625c0,6.766-1.691,11.965-5.074,15.594c-3.383,3.633-8.158,5.447-14.326,5.447
				c-13.578,0-20.369-7.984-20.369-23.951v-4.477c0-12.584,3.482-20.469,10.447-23.653c2.734-1.293,6.043-1.939,9.922-1.939
				c5.672,0,10.285,1.555,13.842,4.663c3.557,3.109,5.336,7.6,5.336,13.468h-9.701c-0.547-2.935-1.518-5.148-2.91-6.641
				s-3.58-2.238-6.566-2.238c-3.482,0-6.068,1.095-7.76,3.283c-1.193,1.542-1.891,4.179-2.088,7.909
				c-0.102,1.193-0.15,2.811-0.15,4.85v4.627c0,5.721,0.795,9.625,2.389,11.713c1.641,2.09,4.189,3.135,7.648,3.135
				c3.455,0,5.844-0.957,7.162-2.873C192.21,64.031,193.068,61.059,193.466,57.029z"/>
			<path fill="#00BBCC" d="M247.71,61.953c0,5.025-1.84,8.967-5.521,11.826c-3.682,2.861-8.383,4.291-14.102,4.291
				c-4.527,0-8.904-1.242-13.133-3.73c-2.088-1.293-3.805-3.121-5.148-5.484c-1.342-2.361-2.014-5.061-2.014-8.096l9.4-0.447
				c0,2.686,1.145,4.775,3.434,6.268c2.287,1.492,4.824,2.238,7.609,2.238c6.219,0,9.328-2.188,9.328-6.566
				c0-3.582-2.115-5.695-6.342-6.342l-8.656-0.896c-4.328-0.645-7.76-2.188-10.297-4.625c-2.537-2.437-3.805-5.943-3.805-10.521
				c0-4.576,1.814-8.357,5.447-11.342c3.629-2.984,8.219-4.477,13.766-4.477c5.545,0,10.01,1.406,13.393,4.216
				c3.383,2.811,5.074,6.43,5.074,10.856l-9.252,0.447c-0.846-4.327-3.756-6.491-8.73-6.491c-3.035,0-5.408,0.646-7.125,1.939
				c-1.717,1.295-2.574,2.824-2.574,4.589c0,1.767,0.621,3.16,1.865,4.179c1.242,1.021,2.785,1.654,4.627,1.902l8.506,0.896
				C242.96,47.877,247.71,53,247.71,61.953z"/>
		</g>
	</g>
	<g>
		<circle fill="#00BBCC" cx="49.197" cy="50" r="47.83"/>
		<path fill="#179399" d="M30.4,72.502l30.153,23.971c0,0,14.684-2.602,25.48-15.963c10.993-13.604,10.993-28.201,10.993-28.201
			l-24.86-19.224l-1.597,3.159l0.69,29.475l-2.98,5.596l-8.422-2.91c0,0-8.596-10.115-9.531-9.18
			c-4.264,4.264-12.082,11.088-12.082,11.088l-5.096,0.648L30.4,72.502"/>
		<g>
			<path fill="#FFFFFF" d="M37.049,47.26c0,0-0.042-0.204,0.027-0.269c0.068-0.065,0.326-0.046,0.326-0.046l5.563,0.55l-5.147,5.032
				L37.049,47.26z"/>
			<path fill="#FFFFFF" d="M55.456,32.592l3.187-3.057c0,0,2.824-2.72,6.943-2.668c4.12,0.052,6.007,2.565,6.501,3.886
				s0.935,3.653,0.961,6.192c0.025,2.539,0.777,22.591,0.777,22.591s0.596,4.404-0.699,8.084c-1.296,3.678-4.275,5.518-7.902,5.104
				s-7.357-3.576-9.768-6.166c-2.409-2.59-10.622-9.611-12.254-11.244s-3.73-3.42-3.73-3.42s-1.762-1.139-1.063-2.383
				c0.699-1.244,1.892-1.917,3.161-0.7c1.269,1.218,8.575,7.825,8.575,7.825l10.052,9.197c0,0,5.176,4.629,7.669,2.822
				c1.788-1.295,2.617-3.367,2.202-9.48c-0.414-6.115-0.44-12.1-0.44-12.1l-0.362-10.648c0,0,0.569-4.741-2.436-5.7
				c-3.006-0.958-4.871,1.036-5.233,1.244c-0.363,0.207-2.85,2.668-3.29,3.083s-1.529,1.788-2.851,0.777
				C54.134,34.82,54.121,33.873,55.456,32.592z"/>
		</g>
		<g>
			<path fill="#FFFFFF" d="M60.684,52.386c0,0,0.041,0.204-0.027,0.269c-0.069,0.064-0.326,0.045-0.326,0.045l-5.564-0.549
				l5.148-5.031L60.684,52.386z"/>
			<path fill="#FFFFFF" d="M42.277,67.055l-3.187,3.057c0,0-2.824,2.721-6.943,2.668c-4.119-0.051-6.006-2.564-6.501-3.887
				c-0.494-1.32-0.935-3.652-0.96-6.191c-0.026-2.539-0.777-22.591-0.777-22.591s-0.597-4.404,0.699-8.083
				c1.295-3.679,4.274-5.519,7.901-5.104c3.628,0.415,7.358,3.575,9.768,6.166s10.622,9.612,12.255,11.244
				c1.632,1.632,3.73,3.42,3.73,3.42s1.762,1.14,1.063,2.383c-0.7,1.244-1.892,1.917-3.161,0.7c-1.27-1.218-8.575-7.824-8.575-7.824
				l-10.053-9.197c0,0-5.176-4.63-7.669-2.824c-1.787,1.295-2.616,3.368-2.202,9.482c0.415,6.114,0.44,12.1,0.44,12.1l0.363,10.646
				c0,0-0.57,4.742,2.436,5.701c3.005,0.957,4.87-1.037,5.233-1.244c0.362-0.207,2.85-2.668,3.29-3.084
				c0.44-0.414,1.528-1.787,2.85-0.777C43.598,64.826,43.612,65.773,42.277,67.055z"/>
		</g>
	</g>
</g>
</svg>
